<svg xmlns="http://www.w3.org/2000/svg" viewBox="0 0 1200 320" fill="none">
  <defs>
    <linearGradient id="bgGrad" x1="0" y1="0" x2="1200" y2="320" gradientUnits="userSpaceOnUse">
      <stop stop-color="#f9f3e8"/>
      <stop offset="1" stop-color="#efe3d0"/>
    </linearGradient>
    <linearGradient id="glassGrad" x1="0" y1="120" x2="0" y2="280" gradientUnits="userSpaceOnUse">
      <stop stop-color="#ffffff" stop-opacity="0.8"/>
      <stop offset="1" stop-color="#ffffff" stop-opacity="0.45"/>
    </linearGradient>
  </defs>

  <rect width="1200" height="320" fill="url(#bgGrad)"/>
  <circle cx="110" cy="56" r="92" fill="#0f766e" fill-opacity="0.08"/>
  <circle cx="1088" cy="258" r="120" fill="#b45309" fill-opacity="0.09"/>
  <path d="M0 240C135 206 264 286 401 250C526 217 636 155 751 177C874 200 970 280 1200 232V320H0V240Z" fill="#0f766e" fill-opacity="0.07"/>

  <g stroke-linecap="round" stroke-linejoin="round">
    <path d="M160 94H310" stroke="#0f766e" stroke-opacity="0.25" stroke-width="12"/>
    <path d="M892 84H1046" stroke="#0f766e" stroke-opacity="0.22" stroke-width="10"/>
    <path d="M190 80L160 112" stroke="#0f766e" stroke-opacity="0.2" stroke-width="6"/>
    <path d="M1016 68L1042 92" stroke="#0f766e" stroke-opacity="0.18" stroke-width="6"/>
  </g>

  <g transform="translate(300 34)">
    <g transform="translate(0 0)">
      <rect x="22" y="20" width="76" height="22" rx="8" fill="#6d28d9"/>
      <rect x="28" y="42" width="64" height="188" rx="24" fill="url(#glassGrad)" stroke="#64748b" stroke-opacity="0.5" stroke-width="2"/>
      <rect x="34" y="106" width="52" height="112" rx="18" fill="#8b5cf6" fill-opacity="0.7"/>
      <rect x="36" y="52" width="8" height="160" rx="4" fill="#ffffff" fill-opacity="0.7"/>
    </g>

    <g transform="translate(132 0)">
      <rect x="22" y="20" width="76" height="22" rx="8" fill="#1d4ed8"/>
      <rect x="28" y="42" width="64" height="188" rx="24" fill="url(#glassGrad)" stroke="#64748b" stroke-opacity="0.5" stroke-width="2"/>
      <rect x="34" y="126" width="52" height="92" rx="18" fill="#93c5fd" fill-opacity="0.85"/>
      <rect x="36" y="52" width="8" height="160" rx="4" fill="#ffffff" fill-opacity="0.7"/>
    </g>

    <g transform="translate(264 0)">
      <rect x="22" y="20" width="76" height="22" rx="8" fill="#ca8a04"/>
      <rect x="28" y="42" width="64" height="188" rx="24" fill="url(#glassGrad)" stroke="#64748b" stroke-opacity="0.5" stroke-width="2"/>
      <rect x="34" y="96" width="52" height="122" rx="18" fill="#facc15" fill-opacity="0.78"/>
      <rect x="36" y="52" width="8" height="160" rx="4" fill="#ffffff" fill-opacity="0.7"/>
    </g>

    <g transform="translate(396 0)">
      <rect x="22" y="20" width="76" height="22" rx="8" fill="#15803d"/>
      <rect x="28" y="42" width="64" height="188" rx="24" fill="url(#glassGrad)" stroke="#64748b" stroke-opacity="0.5" stroke-width="2"/>
      <rect x="34" y="118" width="52" height="100" rx="18" fill="#4ade80" fill-opacity="0.76"/>
      <rect x="36" y="52" width="8" height="160" rx="4" fill="#ffffff" fill-opacity="0.7"/>
    </g>
  </g>
</svg>
