<svg xmlns="http://www.w3.org/2000/svg" viewBox="0 0 1600 1000" preserveAspectRatio="xMidYMid slice">
  <defs>
    <linearGradient id="bg" x1="0" y1="0" x2="1" y2="1">
      <stop offset="0%" stop-color="#dff3ff"/>
      <stop offset="55%" stop-color="#e9f8ff"/>
      <stop offset="100%" stop-color="#f3fbff"/>
    </linearGradient>
    <linearGradient id="glass" x1="0" y1="0" x2="1" y2="1">
      <stop offset="0%" stop-color="#cdeefe" stop-opacity="0.8"/>
      <stop offset="100%" stop-color="#9cd9f7" stop-opacity="0.5"/>
    </linearGradient>
    <filter id="soft" x="-20%" y="-20%" width="140%" height="140%">
      <feGaussianBlur stdDeviation="1.2"/>
    </filter>
  </defs>

  <rect width="1600" height="1000" fill="url(#bg)"/>

  <g opacity="0.35">
    <circle cx="180" cy="120" r="60" fill="#b8e6ff"/>
    <circle cx="1380" cy="160" r="78" fill="#bfefff"/>
    <circle cx="1280" cy="820" r="90" fill="#c8f3ff"/>
    <circle cx="320" cy="860" r="72" fill="#b5e9ff"/>
  </g>

  <g stroke="#5ea8c7" stroke-width="6" fill="none" opacity="0.75">
    <path d="M210 280 l34 0 0 48 38 88 a18 18 0 0 1 -16 26 h-78 a18 18 0 0 1 -16 -26 l38 -88z"/>
    <path d="M560 220 l34 0 0 58 62 136 a24 24 0 0 1 -22 34 h-114 a24 24 0 0 1 -22 -34 l62 -136z"/>
    <path d="M1020 260 l34 0 0 52 44 102 a20 20 0 0 1 -18 28 h-86 a20 20 0 0 1 -18 -28 l44 -102z"/>
    <path d="M1340 235 l34 0 0 54 50 118 a22 22 0 0 1 -20 31 h-94 a22 22 0 0 1 -20 -31 l50 -118z"/>
  </g>

  <g opacity="0.48">
    <rect x="188" y="365" width="116" height="64" rx="18" fill="url(#glass)"/>
    <rect x="516" y="338" width="122" height="92" rx="20" fill="url(#glass)"/>
    <rect x="980" y="356" width="102" height="72" rx="18" fill="url(#glass)"/>
    <rect x="1292" y="348" width="124" height="88" rx="20" fill="url(#glass)"/>
  </g>

  <g fill="#7cbcd8" opacity="0.5" filter="url(#soft)">
    <circle cx="780" cy="210" r="12"/>
    <circle cx="820" cy="250" r="10"/>
    <circle cx="740" cy="250" r="9"/>
    <circle cx="780" cy="295" r="11"/>
    <circle cx="1180" cy="590" r="13"/>
    <circle cx="1128" cy="625" r="10"/>
    <circle cx="1228" cy="625" r="9"/>
    <circle cx="1180" cy="670" r="11"/>
  </g>

  <g opacity="0.22" stroke="#6ab0cf" stroke-width="7" fill="none">
    <circle cx="360" cy="580" r="90"/>
    <circle cx="360" cy="580" r="56"/>
    <line x1="270" y1="580" x2="450" y2="580"/>
    <line x1="360" y1="490" x2="360" y2="670"/>
  </g>
</svg>
