<svg xmlns="http://www.w3.org/2000/svg" viewBox="0 0 320 180" fill="none">
  <g stroke="#a36d73" stroke-width="2.1" stroke-linecap="round" stroke-linejoin="round" opacity="0.5">
    <path d="M54 66h118a14 14 0 0 1 14 14v34a14 14 0 0 1-14 14H108l-30 20v-20H54a14 14 0 0 1-14-14V80a14 14 0 0 1 14-14Z"/>
    <path d="M74 92h80M74 108h58"/>
    <path d="M234 72c20 0 36 16 36 36" opacity="0.58"/>
    <path d="M226 56c34 0 62 28 62 62" opacity="0.42"/>
    <circle cx="228" cy="120" r="12" fill="#a36d73" fill-opacity="0.2"/>
  </g>
</svg>
